<svg width="657.23" height="639.28" version="1.1" viewBox="0 0 575.08 559.37" xmlns="http://www.w3.org/2000/svg">
 <path id="Path" d="m567 46.87c5.387 5.387 8.08 11.853 8.08 19.394 0 7.543-2.693 14.007-8.08 19.394l-211.28 196.05 203.2 192c5.387 5.389 8.08 11.854 8.08 19.396s-2.693 14.008-8.08 19.395l-38.791 38.79c-5.387 5.388-11.852 8.082-19.395 8.082s-14.008-2.694-19.395-8.082l-198.2-191-197.48 191c-5.387 5.387-11.851 8.082-19.395 8.082-7.541 0-14.006-2.695-19.394-8.082l-38.79-38.789c-5.387-5.389-8.083-11.854-8.083-19.396 0-7.543 2.695-14.008 8.083-19.396l202.48-191-202.48-195.05c-5.388-5.387-8.081-11.852-8.081-19.394s2.694-14.007 8.081-19.395l38.79-38.79c5.388-5.387 11.853-8.082 19.396-8.082 7.541 0 14.006 2.693 19.394 8.081l197.48 200.05 206.28-202.05c5.387-5.387 11.852-8.08 19.395-8.08s14.008 2.694 19.395 8.082z"/>
</svg>
