<svg xmlns="http://www.w3.org/2000/svg" viewBox="0 0 18 18" xmlns:xlink="http://www.w3.org/1999/xlink" xml:space="preserve" width="100%" height="100%"><path xmlns="http://www.w3.org/2000/svg" fill="#494c4e" d="M14.228 16.227a1 1 0 0 1-.707-1.707l1-1a1 1 0 0 1 1.416 1.414l-1 1a1 1 0 0 1-.707.293zm-5.638 0a1 1 0 0 1-.707-1.707l6.638-6.638a1 1 0 0 1 1.416 1.414l-6.638 6.638a1 1 0 0 1-.707.293zm-5.84 0a1 1 0 0 1-.707-1.707L14.52 2.043a1 1 0 1 1 1.415 1.414L3.457 15.934a1 1 0 0 1-.707.293z"></path></svg>