<svg width="512" height="512" version="1.1" viewBox="0 0 512 511.93" xml:space="preserve" xmlns="http://www.w3.org/2000/svg"><path d="m441.16 511.97a35.356 35.358 0 0 1-24.998-60.355l35.356-35.358a35.378 35.379 0 0 1 50.065 49.995l-35.356 35.358a35.356 35.358 0 0 1-24.998 10.36zm-199.34 0a35.356 35.358 0 0 1-24.998-60.355l234.7-234.71a35.378 35.379 0 0 1 50.065 49.995l-234.7 234.71a35.356 35.358 0 0 1-24.998 10.36zm-206.48 0a35.356 35.358 0 0 1-24.998-60.355l441.15-441.16a35.365 35.365 0 1 1 50.03 49.995l-441.18 441.16a35.356 35.358 0 0 1-24.998 10.36z" fill="#494c4e" stroke-width="35.358"/></svg>
